<svg width="18" height="18" viewBox="0 0 18 18" fill="none" xmlns="http://www.w3.org/2000/svg">
<path d="M7.39202 3.85713H10.6063C10.6063 3.43089 10.437 3.02211 10.1356 2.72071C9.83419 2.41931 9.4254 2.24999 8.99916 2.24999C8.57292 2.24999 8.16414 2.41931 7.86274 2.72071C7.56134 3.02211 7.39202 3.43089 7.39202 3.85713ZM6.42773 3.85713C6.42773 3.17515 6.69865 2.5211 7.18089 2.03886C7.66312 1.55662 8.31718 1.28571 8.99916 1.28571C9.68115 1.28571 10.3352 1.55662 10.8174 2.03886C11.2997 2.5211 11.5706 3.17515 11.5706 3.85713H15.5884C15.7163 3.85713 15.839 3.90793 15.9294 3.99835C16.0198 4.08877 16.0706 4.2114 16.0706 4.33928C16.0706 4.46715 16.0198 4.58978 15.9294 4.6802C15.839 4.77062 15.7163 4.82142 15.5884 4.82142H14.7463L13.9639 14.2091C13.907 14.892 13.5955 15.5286 13.0913 15.9926C12.587 16.4566 11.9267 16.7142 11.2414 16.7143H6.75688C6.07159 16.7142 5.41134 16.4566 4.90706 15.9926C4.40278 15.5286 4.0913 14.892 4.03438 14.2091L3.25202 4.82142H2.40988C2.282 4.82142 2.15937 4.77062 2.06895 4.6802C1.97853 4.58978 1.92773 4.46715 1.92773 4.33928C1.92773 4.2114 1.97853 4.08877 2.06895 3.99835C2.15937 3.90793 2.282 3.85713 2.40988 3.85713H6.42773ZM4.99545 14.1287C5.03221 14.5706 5.23371 14.9826 5.55997 15.2829C5.88624 15.5832 6.31344 15.7499 6.75688 15.75H11.2414C11.6849 15.7499 12.1121 15.5832 12.4384 15.2829C12.7646 14.9826 12.9661 14.5706 13.0029 14.1287L13.7794 4.82142H4.21952L4.99545 14.1287ZM7.55273 7.07142C7.68061 7.07142 7.80324 7.12222 7.89366 7.21264C7.98408 7.30306 8.03488 7.42569 8.03488 7.55356V13.0178C8.03488 13.1457 7.98408 13.2684 7.89366 13.3588C7.80324 13.4492 7.68061 13.5 7.55273 13.5C7.42486 13.5 7.30223 13.4492 7.21181 13.3588C7.12139 13.2684 7.07059 13.1457 7.07059 13.0178V7.55356C7.07059 7.42569 7.12139 7.30306 7.21181 7.21264C7.30223 7.12222 7.42486 7.07142 7.55273 7.07142ZM10.9277 7.55356C10.9277 7.42569 10.8769 7.30306 10.7865 7.21264C10.6961 7.12222 10.5735 7.07142 10.4456 7.07142C10.3177 7.07142 10.1951 7.12222 10.1047 7.21264C10.0142 7.30306 9.96345 7.42569 9.96345 7.55356V13.0178C9.96345 13.1457 10.0142 13.2684 10.1047 13.3588C10.1951 13.4492 10.3177 13.5 10.4456 13.5C10.5735 13.5 10.6961 13.4492 10.7865 13.3588C10.8769 13.2684 10.9277 13.1457 10.9277 13.0178V7.55356Z" fill="#BC1717"/>
</svg>
